<?xml version="1.0" encoding="UTF-8"?>
<svg width="156px" height="24px" viewBox="0 0 156 24" version="1.1" xmlns="http://www.w3.org/2000/svg" xmlns:xlink="http://www.w3.org/1999/xlink">
    <!-- Generator: Sketch 52.6 (67491) - http://www.bohemiancoding.com/sketch -->
    <title>logo</title>
    <desc>Created with Sketch.</desc>
    <g id="Page-1" stroke="none" stroke-width="1" fill="none" fill-rule="evenodd">
        <g id="logo">
            <path d="M149.98301,18.1039366 L149.98301,12.9472634 L147.644079,12.9472634 L147.644079,13.1387881 C147.60297,15.2315406 147.26103,16.7361743 146.837109,18.1039366 L149.98301,18.1039366 Z M154.141188,18.1039366 L155.686693,18.1039366 L155.591168,23.8349465 L151.761149,23.8349465 L151.761149,21.4413624 L145.496673,21.4413624 L145.428238,23.8349465 L141.571129,23.8349465 L141.571129,18.1039366 L142.911564,18.1039366 C143.581901,16.1753822 143.909822,14.3014812 143.909822,10.2252832 L143.909822,9.65094653 L154.141188,9.65094653 L154.141188,18.1039366 Z M76.4913743,8.92595644 C73.6874139,8.92595644 72.3605228,7.73593663 72.0321267,5.67051089 L75.1918099,5.21926337 C75.3424634,5.99890693 75.7252752,6.49126337 76.4913743,6.49126337 C77.2574733,6.49126337 77.6402851,5.99890693 77.790701,5.21926337 L80.9503842,5.67051089 C80.6222257,7.73593663 79.2815525,8.92595644 76.4913743,8.92595644 Z M62.2798812,18.1859644 C63.7845149,18.1859644 64.741901,17.008301 64.741901,15.5597465 C64.741901,14.1385188 63.6887525,12.9335287 62.2387723,12.9335287 C60.7343762,12.9335287 59.7769901,14.1114297 59.7769901,15.5597465 C59.7769901,16.9812119 60.8163564,18.1859644 62.2798812,18.1859644 Z M62.2798812,9.39103366 C66.0412277,9.39103366 68.7632079,12.1676673 68.7632079,15.5597465 C68.7632079,18.9109545 66.0274455,21.7284594 62.2387723,21.7284594 C58.4636436,21.7284594 55.7416634,18.9520634 55.7416634,15.5597465 C55.7416634,12.2087762 58.4912079,9.39103366 62.2798812,9.39103366 Z M133.596713,18.2407366 C134.923604,18.2407366 135.990297,17.132697 135.990297,15.5325386 C135.990297,13.9732515 134.923604,12.8516673 133.596713,12.8516673 C132.242733,12.8516673 131.175802,13.9456871 131.175802,15.5734099 C131.175802,17.132697 132.242733,18.2407366 133.596713,18.2407366 Z M135.908554,9.65087525 L140.039168,9.65087525 L140.039168,21.4412911 L135.908554,21.4412911 L135.908554,19.8684594 C135.101347,20.8531723 134.102851,21.7012515 132.338495,21.7012515 C129.520752,21.7012515 127.099842,19.3758653 127.099842,15.5598653 C127.099842,11.7300832 129.520752,9.39091485 132.311168,9.39091485 C134.102851,9.39091485 135.142455,10.1981228 135.908554,11.0870733 L135.908554,9.65087525 Z M74.508,15.5871921 L78.4473267,9.65087525 L82.2635644,9.65087525 L82.2635644,21.4412911 L78.2555644,21.4412911 L78.2555644,17.5977267 C78.2555644,16.8591921 78.2555644,16.1753109 78.2693465,15.5049743 L74.3302574,21.4412911 L70.5140198,21.4412911 L70.5140198,9.65087525 L74.5217822,9.65087525 L74.5217822,13.4397861 C74.5217822,14.027905 74.5217822,14.8759842 74.508,15.5871921 Z M115.24099,11.9214178 L115.268317,9.65092277 L125.417465,9.65092277 L125.417465,21.4413386 L121.273069,21.4413386 L121.273069,12.9472396 L118.89303,12.9472396 L118.89303,13.3167446 C118.769941,20.4428436 117.183327,21.5917545 114.680198,21.5917545 C114.283604,21.5917545 113.503723,21.5233188 112.98404,21.4413386 L108.073782,21.4413386 L104.818574,16.4077545 L104.818574,21.4413386 L100.687723,21.4413386 L100.687723,9.65092277 L104.818574,9.65092277 L104.818574,14.1919129 L107.97802,9.65092277 L112.751406,9.65092277 L108.538812,15.0126653 L112.86095,21.3044673 L113.052475,17.6797545 C113.503723,17.7346455 113.613267,17.7346455 113.722574,17.7346455 C114.461347,17.7346455 115.227208,17.2011802 115.24099,11.9214178 Z M93.0417267,17.7483089 C94.4917069,17.7483089 95.490202,17.1190812 96.3242614,15.9155168 L99.5115089,18.2406653 C97.9930931,20.2923089 96.0780832,21.7285069 92.7406574,21.7285069 C88.3089743,21.7285069 84.9171327,18.4321901 84.9171327,13.7816554 C84.9171327,9.44573465 88.2818851,5.87591287 92.9459644,5.87591287 C95.831905,5.87591287 97.938202,7.13413069 99.4292911,9.26799208 L96.2969347,11.5520317 C95.4626376,10.3895762 94.4641426,9.84232871 93.1372515,9.84232871 C90.908103,9.84232871 89.3623604,11.5931406 89.3623604,13.7816554 C89.3623604,16.1890218 90.976301,17.7483089 93.0417267,17.7483089 Z M49.2583842,6.13573069 L51.9803644,6.13573069 L54.9074139,21.4413149 L50.7630178,21.4413149 L49.4225822,13.9730376 L45.6885624,21.9474535 L45.2097505,21.9474535 L41.4619485,14.0417109 L40.1217505,21.4413149 L36.0046812,21.4413149 L38.9317307,6.13573069 L41.6396911,6.13573069 C41.6396911,6.13573069 43.992404,11.196404 44.4576713,12.1675723 C44.922701,13.1387406 45.4559287,14.3834139 45.4559287,14.3834139 C45.4559287,14.3834139 46.1398099,12.7832554 46.4817505,12.0993743 C46.8239287,11.4154931 49.2583842,6.13573069 49.2583842,6.13573069 Z" id="Combined-Shape" fill="#2855AF"></path>
            <g id="Group" transform="translate(-0.000000, 0.521739)">
                <path d="M4.16231287,22.1662812 C7.89395644,22.1662812 10.7152634,17.3078257 13.2445307,12.0035881 C14.4618772,9.43202376 15.5970059,6.73760792 16.7321347,4.45333069 C17.9787089,1.91954851 19.2573624,0.131192079 20.8218772,0.131192079 C22.1480554,0.131192079 23.3960554,1.20216238 24.6381149,2.88026139 C27.2132436,6.36430099 29.4390653,12.264499 29.4390653,16.134202 C29.4390653,19.3758653 27.7704713,22.1662812 24.3508277,22.1662812 L4.16231287,22.1662812 Z" id="Fill-15" fill="#64CDFF"></path>
                <path d="M13.2444594,12.0035644 C10.6812119,6.8359604 9.52065743,3.04443564 7.25348911,3.04443564 C5.84461782,3.04443564 4.25800396,4.52174257 2.82180594,6.94265347 C1.28319208,9.51160396 0.0724990099,13.1365545 0.0724990099,17.0371485 C0.0724990099,20.1172277 1.57998416,22.1662574 4.16224158,22.1662574 C7.89293465,22.1662574 10.7151921,17.307802 13.2444594,12.0035644" id="Fill-17" fill="#2855AF"></path>
            </g>
        </g>
    </g>
</svg>