<svg width="500" height="79" viewBox="0 0 500 79" xmlns="http://www.w3.org/2000/svg"><title>Fill 4</title><path d="M490.848 26.25c0-6.002-1.39-10.203-4.222-12.598-2.812-2.38-6.782-3.574-11.884-3.574-2.615 0-6.123.423-10.603 1.265-4.453.852-8.713 1.994-12.768 3.442l1.35-9.515c7.105-2.398 14.847-3.585 23.253-3.585 4.49 0 8.499.783 12.073 2.36 3.57 1.596 6.442 4.214 8.595 7.888 2.137 3.677 3.235 8.454 3.235 14.334L500 46.704c0 2.401-.047 4.521-.16 6.374a32.495 32.495 0 0 1-.776 5.476 23.994 23.994 0 0 1-1.881 5.181c-1.44 2.866-3.317 5.36-5.638 7.454a24.5 24.5 0 0 1-7.912 4.824 26.205 26.205 0 0 1-9.308 1.686c-4.85 0-9.232-1.14-13.15-3.432-3.922-2.293-6.986-5.48-9.195-9.557-2.222-4.078-3.33-8.68-3.33-13.802 0-3.956.677-7.6 2.043-10.925 1.37-3.3 3.218-6.153 5.597-8.518 2.378-2.365 5.059-4.184 8.071-5.423a24.204 24.204 0 0 1 9.443-1.892c1.931 0 3.865.173 5.84.543 1.956.365 3.446.783 4.447 1.223l3.646 11.674c-4.104-3.147-8.403-4.727-12.894-4.727-3.204 0-6.095.77-8.68 2.312-2.581 1.54-4.606 3.691-6.057 6.468-1.465 2.769-2.181 5.939-2.181 9.476 0 3.46.7 6.56 2.104 9.27 1.427 2.73 3.38 4.825 5.893 6.335 2.513 1.507 5.355 2.253 8.504 2.253 3.172 0 5.997-.746 8.5-2.253 2.485-1.51 4.44-3.64 5.829-6.387 1.407-2.764 2.093-5.93 2.093-9.538V26.25zm-62.381 50.607V51.011c0-3.588-.689-6.772-2.093-9.54-1.386-2.764-3.34-4.897-5.838-6.385-2.51-1.487-5.344-2.223-8.486-2.223-3.157 0-6 .752-8.51 2.262-2.515 1.501-4.466 3.599-5.89 6.315-1.399 2.71-2.112 5.794-2.112 9.273 0 3.548.727 6.721 2.181 9.482 1.449 2.785 3.479 4.936 6.066 6.481 2.581 1.535 5.47 2.301 8.674 2.301 4.458 0 8.757-1.57 12.886-4.735l-3.632 11.649c-2.648 1.214-6.082 1.808-10.294 1.808-3.234 0-6.378-.635-9.401-1.914-3.034-1.27-5.734-3.095-8.112-5.457-2.365-2.36-4.225-5.214-5.591-8.52-1.366-3.326-2.047-6.948-2.047-10.9 0-3.83.64-7.426 1.923-10.713 1.268-3.287 3.07-6.14 5.37-8.555 2.323-2.398 5.041-4.236 8.196-5.548 3.174-1.293 6.568-1.942 10.2-1.942 3.218 0 6.32.557 9.308 1.68a24.91 24.91 0 0 1 7.931 4.827 25.472 25.472 0 0 1 5.627 7.457c1.237 2.432 2.016 4.9 2.321 7.384.316 2.502.477 5.702.477 9.624v21.735h-9.154zm-60.184 0v-29.93c0-2.724-.494-5.142-1.517-7.242-1.007-2.095-2.45-3.721-4.3-4.88-1.848-1.153-3.958-1.736-6.358-1.736-3.605 0-6.527 1.284-8.732 3.853-2.2 2.56-3.309 5.902-3.309 10.005V59.64c0 6.282-1.451 10.727-4.381 13.318-2.916 2.604-7.245 3.9-12.973 3.9V67.93c2.477 0 4.29-.26 5.42-.769 1.128-.51 1.904-1.434 2.308-2.8.4-1.345.584-3.448.584-6.297v-9.365c0-5.125.867-9.538 2.582-13.226 1.728-3.713 4.172-6.51 7.368-8.434 3.163-1.928 6.864-2.889 11.133-2.889 4.266 0 8.008.961 11.21 2.87 3.2 1.91 5.678 4.724 7.414 8.417 1.737 3.694 2.596 8.08 2.596 13.175v28.245h-9.045zm-77.849-51.849V45.8l21.83-20.79h11.239l-19.259 18.356c3.03.014 5.816.874 8.382 2.57 2.567 1.694 4.559 3.87 5.991 6.51 1.443 2.644 2.17 5.318 2.17 8.034v16.378h-9.275V61.844c0-3.382-1.153-6.059-3.454-8.034-2.31-1.994-4.999-2.991-8.082-2.991-2.044 0-3.997.643-5.898 1.924-1.91 1.279-3.128 3.223-3.644 5.842v18.272h-9.27V25.008h9.27zm-87.313 14.474c0-6.967 1.729-13.493 5.218-19.563 3.479-6.061 8.134-10.905 13.994-14.512C228.213 1.799 234.473 0 241.153 0c4.013 0 7.804.599 11.38 1.766 3.587 1.192 6.82 2.819 9.735 4.883a40.097 40.097 0 0 1 7.791 7.317l-7.79 6.09c-5.745-7.137-12.785-10.71-21.116-10.71-5.01 0-9.652 1.378-13.917 4.13-4.28 2.747-7.676 6.443-10.17 11.059-2.508 4.64-3.753 9.607-3.753 14.947 0 4.897 1.26 9.601 3.77 14.133 2.518 4.518 5.914 8.153 10.207 10.922 4.297 2.747 8.922 4.131 13.863 4.131 4.79 0 9.289-1.245 13.459-3.752 4.172-2.476 7.486-5.997 9.942-10.546l8.191 6.092a42.985 42.985 0 0 1-8.364 9.376 36.839 36.839 0 0 1-10.74 6.192c-3.932 1.454-8.107 2.192-12.488 2.192-6.68 0-12.94-1.766-18.82-5.303-5.86-3.516-10.515-8.262-13.994-14.21-3.49-5.954-5.218-12.356-5.218-19.227zm-40.24-26.549h19.042v5.671h-19.041v-5.67zm31.097 11.936v51.988h-9.04v-4.114c-2.812 3.307-7.075 4.956-12.786 4.956-6.969 0-12.326-2.048-16.08-6.145-3.758-4.092-5.645-9.71-5.645-16.852V24.869h9.04v30.047c0 4.003 1.193 7.326 3.601 9.933 2.414 2.613 5.462 3.925 9.169 3.925 3.862 0 6.946-1.334 9.256-3.978 2.299-2.643 3.445-5.768 3.445-9.376V24.87h9.04zm-78.271 7.994c-4.538 0-8.37 1.716-11.503 5.165-3.139 3.443-4.708 7.693-4.708 12.771 0 5.078 1.57 9.362 4.708 12.847 3.133 3.482 6.965 5.231 11.503 5.231 2.965 0 5.717-.805 8.25-2.401 2.523-1.588 4.517-3.777 5.974-6.524 1.476-2.766 2.198-5.808 2.198-9.153 0-3.31-.722-6.334-2.198-9.08-1.457-2.744-3.451-4.9-5.975-6.488-2.513-1.58-5.275-2.368-8.25-2.368zm.02-8.713c3.535 0 6.877.719 10.05 2.153 3.15 1.435 5.94 3.39 8.316 5.9a27.875 27.875 0 0 1 5.605 8.59 26.043 26.043 0 0 1 2.016 10.115c0 4.794-1.15 9.236-3.446 13.359-2.307 4.136-5.443 7.429-9.434 9.875-3.959 2.434-8.343 3.662-13.108 3.662-4.677 0-9.012-1.228-12.973-3.676-3.986-2.452-7.122-5.764-9.446-9.92-2.32-4.167-3.478-8.596-3.478-13.3 0-4.605 1.157-8.984 3.478-13.125 2.324-4.131 5.46-7.435 9.446-9.925 3.961-2.463 8.296-3.708 12.973-3.708zM0 76.75l9.563-67.32c.85-6.14 3.487-9.217 7.899-9.217 3.851 0 6.515 2.518 8.027 7.557l16.715 53.86L58.837 7.77c1.5-5.04 4.17-7.557 8.024-7.557 4.412 0 7.045 3.078 7.898 9.217l9.558 67.32H74.76l-8.545-62.262-17.149 55.549c-1.646 5.103-3.94 7.663-6.861 7.663-1.682 0-3.05-.594-4.074-1.808-1.018-1.203-1.972-3.164-2.875-5.855L18.103 14.487 9.67 76.75H0z" fill="#0E5084" fill-rule="evenodd"/></svg>