<svg xmlns="http://www.w3.org/2000/svg" width="117" height="18" viewBox="0 0 117 18">
    <g fill="none" fill-rule="evenodd">
        <path fill="#FFF" d="M112.487 13.578V9.71h-1.754v.144a12.75 12.75 0 0 1-.605 3.724h2.36zm3.119 0h1.159l-.072 4.298h-2.872v-1.795h-4.698l-.052 1.795h-2.893v-4.298h1.006c.502-1.446.748-2.852.748-5.909v-.43h7.674v6.339zM57.369 6.694c-2.103 0-3.099-.892-3.345-2.441l2.37-.339c.113.585.4.954.975.954.574 0 .861-.369.974-.954l2.37.339c-.246 1.549-1.252 2.441-3.344 2.441zm-10.66 6.945c1.13 0 1.847-.883 1.847-1.97 0-1.065-.79-1.969-1.877-1.969-1.128 0-1.846.884-1.846 1.97 0 1.066.78 1.97 1.877 1.97zm0-6.596c2.822 0 4.863 2.083 4.863 4.627 0 2.513-2.051 4.626-4.893 4.626-2.831 0-4.873-2.082-4.873-4.626 0-2.513 2.062-4.627 4.904-4.627zm53.489 6.638c.995 0 1.795-.831 1.795-2.032 0-1.17-.8-2.01-1.795-2.01-1.016 0-1.816.82-1.816 2.041 0 1.17.8 2 1.816 2zm1.733-6.443h3.098v8.843h-3.098v-1.18c-.605.739-1.354 1.375-2.677 1.375-2.113 0-3.93-1.744-3.93-4.606 0-2.872 1.817-4.627 3.91-4.627 1.343 0 2.123.606 2.697 1.272V7.238zm-46.05 4.452l2.954-4.452h2.863v8.843h-3.006v-2.883c0-.554 0-1.067.01-1.57l-2.954 4.453h-2.862V7.238h3.005v2.842c0 .44 0 1.077-.01 1.61zm30.55-2.749l.02-1.703h7.612v8.843h-3.108v-6.37H89.17v.277c-.093 5.344-1.283 6.206-3.16 6.206-.297 0-.882-.052-1.272-.113h-3.683l-2.441-3.775v3.775h-3.098V7.238h3.098v3.406l2.37-3.406h3.58l-3.16 4.021 3.242 4.72.143-2.72c.339.042.421.042.503.042.554 0 1.128-.4 1.139-4.36zm-16.65 4.37c1.088 0 1.837-.472 2.462-1.374l2.39 1.743c-1.138 1.54-2.574 2.616-5.078 2.616-3.323 0-5.867-2.472-5.867-5.96 0-3.252 2.523-5.93 6.021-5.93 2.165 0 3.745.945 4.863 2.545l-2.35 1.713c-.625-.872-1.374-1.282-2.37-1.282-1.67 0-2.83 1.313-2.83 2.954 0 1.806 1.21 2.975 2.76 2.975zm-32.837-8.71h2.041l2.196 11.48h-3.109l-1.005-5.601-2.8 5.98h-.36l-2.81-5.929-1.006 5.55h-3.087l2.195-11.48h2.03s1.765 3.796 2.114 4.525c.349.728.749 1.662.749 1.662s.513-1.2.77-1.713c.256-.513 2.082-4.473 2.082-4.473zM3.122 17.016c2.798 0 4.914-3.644 6.811-7.622.913-1.929 1.765-3.95 2.616-5.663.935-1.9 1.894-3.241 3.067-3.241.995 0 1.931.803 2.863 2.062 1.93 2.613 3.6 7.038 3.6 9.94 0 2.431-1.251 4.524-3.816 4.524H3.122z"/>
        <path fill="#64CDFF" d="M9.933 9.394C8.011 5.518 7.14 2.674 5.44 2.674c-1.057 0-2.246 1.109-3.324 2.924C.962 7.525.054 10.244.054 13.17c0 2.31 1.131 3.847 3.068 3.847 2.798 0 4.914-3.644 6.811-7.622"/>
    </g>
</svg>
